STARTFONT 2.1
COMMENT
COMMENT Converted from OpenType font "manrope-semibold.otf" by "otf2bdf 3.0".
COMMENT
FONT -FreeType-Manrope SemiBold-Medium-R-Normal--29-210-100-100-P-138-ISO10646-1
SIZE 21 100 100
FONTBOUNDINGBOX 29 37 -1 -7
STARTPROPERTIES 19
FOUNDRY "FreeType"
FAMILY_NAME "Manrope SemiBold"
WEIGHT_NAME "Medium"
SLANT "R"
SETWIDTH_NAME "Normal"
ADD_STYLE_NAME ""
PIXEL_SIZE 29
POINT_SIZE 210
RESOLUTION_X 100
RESOLUTION_Y 100
SPACING "P"
AVERAGE_WIDTH 138
CHARSET_REGISTRY "ISO10646"
CHARSET_ENCODING "1"
FONT_ASCENT 30
FONT_DESCENT 8
COPYRIGHT "Copyright 2019-2021 The Manrope Project Authors (https://github.com/sharanda/manrope)"
_OTF_FONTFILE "manrope-semibold.otf"
_OTF_PSNAME "Manrope-SemiBold"
ENDPROPERTIES
CHARS 191
STARTCHAR 0020
ENCODING 32
SWIDTH 205 0
DWIDTH 6 0
BBX 0 0 0 0
BITMAP
ENDCHAR
STARTCHAR 0021
ENCODING 33
SWIDTH 342 0
DWIDTH 10 0
BBX 4 21 3 0
BITMAP
F0
F0
F0
F0
F0
F0
F0
F0
F0
F0
F0
F0
F0
F0
F0
F0
00
00
F0
F0
F0
ENDCHAR
STARTCHAR 0022
ENCODING 34
SWIDTH 445 0
DWIDTH 13 0
BBX 8 5 2 16
BITMAP
E7
E7
E7
E7
E7
ENDCHAR
STARTCHAR 0023
ENCODING 35
SWIDTH 925 0
DWIDTH 27 0
BBX 23 21 2 0
BITMAP
0070E0
0070E0
0070E0
00E1C0
00E1C0
3FFFFE
3FFFFE
3FFFFE
01C380
01C380
038700
038700
FFFFF8
FFFFF8
FFFFF8
070E00
070E00
070E00
0E1C00
0E1C00
0E1C00
ENDCHAR
STARTCHAR 0024
ENCODING 36
SWIDTH 617 0
DWIDTH 18 0
BBX 16 27 1 -3
BITMAP
01C0
01C0
01C0
07E0
1FF8
3FFC
781E
700E
700F
7000
7800
3F00
3FE0
0FF8
01FE
001E
000F
2007
E007
F00F
781E
3FFE
1FFC
07F0
01C0
01C0
01C0
ENDCHAR
STARTCHAR 0025
ENCODING 37
SWIDTH 891 0
DWIDTH 26 0
BBX 22 21 2 0
BITMAP
1E0010
7F8038
7F8078
E1C0F0
C0C1E0
E0C3C0
E1C780
FFCF00
7F9E00
1E3C00
007800
00F1E0
01E3F8
03C7FC
078E1C
0F0E0C
1E0E0C
3C0E1C
7807FC
7003F8
2001F0
ENDCHAR
STARTCHAR 0026
ENCODING 38
SWIDTH 651 0
DWIDTH 19 0
BBX 18 21 1 0
BITMAP
07E000
1FF800
1FF800
3C3C00
381000
380000
380000
380000
3C0000
1E0000
3F8700
7FC700
71E700
70F700
F07F00
F03F00
701E00
781F00
3FFF80
1FF9C0
07E080
ENDCHAR
STARTCHAR 0027
ENCODING 39
SWIDTH 240 0
DWIDTH 7 0
BBX 3 5 2 16
BITMAP
E0
E0
E0
E0
E0
ENDCHAR
STARTCHAR 0028
ENCODING 40
SWIDTH 445 0
DWIDTH 13 0
BBX 8 30 4 -5
BITMAP
04
0E
0E
1C
3C
38
38
70
70
70
E0
E0
E0
E0
E0
E0
E0
E0
E0
E0
70
70
70
38
38
3C
1C
1E
0F
04
ENDCHAR
STARTCHAR 0029
ENCODING 41
SWIDTH 445 0
DWIDTH 13 0
BBX 8 30 1 -5
BITMAP
20
F0
70
38
38
1C
1C
0E
0E
0E
06
07
07
07
07
07
07
07
07
06
0E
0E
0E
1C
1C
38
38
70
F0
20
ENDCHAR
STARTCHAR 002A
ENCODING 42
SWIDTH 445 0
DWIDTH 13 0
BBX 10 10 1 11
BITMAP
0E00
0C00
0C40
FDC0
FFC0
3F80
1F00
3F00
7380
3100
ENDCHAR
STARTCHAR 002B
ENCODING 43
SWIDTH 582 0
DWIDTH 17 0
BBX 13 13 2 4
BITMAP
0700
0700
0700
0700
0700
FFF8
FFF8
0700
0700
0700
0700
0700
0700
ENDCHAR
STARTCHAR 002C
ENCODING 44
SWIDTH 274 0
DWIDTH 8 0
BBX 3 8 2 -4
BITMAP
E0
E0
E0
E0
60
60
C0
80
ENDCHAR
STARTCHAR 002D
ENCODING 45
SWIDTH 411 0
DWIDTH 12 0
BBX 9 2 2 8
BITMAP
FF80
FF80
ENDCHAR
STARTCHAR 002E
ENCODING 46
SWIDTH 274 0
DWIDTH 8 0
BBX 3 3 3 0
BITMAP
E0
E0
E0
ENDCHAR
STARTCHAR 002F
ENCODING 47
SWIDTH 411 0
DWIDTH 12 0
BBX 8 21 2 0
BITMAP
07
07
07
0E
0E
0E
0E
1C
1C
1C
1C
38
38
38
78
70
70
70
F0
E0
E0
ENDCHAR
STARTCHAR 0030
ENCODING 48
SWIDTH 651 0
DWIDTH 19 0
BBX 15 21 2 0
BITMAP
0FC0
1FF0
3FF8
783C
F01C
E01E
E00E
E00E
E00E
E00E
E00E
E00E
E00E
E00E
E00E
E01E
F01C
787C
3FF8
1FF0
07C0
ENDCHAR
STARTCHAR 0031
ENCODING 49
SWIDTH 411 0
DWIDTH 12 0
BBX 7 21 2 0
BITMAP
1E
7E
FE
FE
CE
0E
0E
0E
0E
0E
0E
0E
0E
0E
0E
0E
0E
0E
0E
0E
0E
ENDCHAR
STARTCHAR 0032
ENCODING 50
SWIDTH 582 0
DWIDTH 17 0
BBX 15 21 1 0
BITMAP
07C0
1FF0
3FF8
7C3C
701C
701E
701E
001E
001C
003C
007C
00F8
01F0
03C0
0780
0F00
1E00
7C00
FFFE
FFFE
FFFE
ENDCHAR
STARTCHAR 0033
ENCODING 51
SWIDTH 582 0
DWIDTH 17 0
BBX 14 21 1 0
BITMAP
7FFC
7FFC
7FFC
0078
00F0
01E0
03C0
0780
1FE0
0FF0
04F8
0038
003C
001C
001C
001C
F03C
7878
7FF0
3FE0
0FC0
ENDCHAR
STARTCHAR 0034
ENCODING 52
SWIDTH 617 0
DWIDTH 18 0
BBX 15 21 1 0
BITMAP
01E0
01C0
03C0
0380
0780
0700
0F00
0E00
1E00
1C38
3C38
3838
7838
7038
FFFE
FFFE
FFFE
0038
0038
0038
0038
ENDCHAR
STARTCHAR 0035
ENCODING 53
SWIDTH 582 0
DWIDTH 17 0
BBX 14 21 2 0
BITMAP
7FF0
7FF0
7FF0
6000
6000
E000
E000
E780
FFE0
FFF0
F0F8
2038
0038
003C
003C
6038
E038
F0F8
7FF0
3FE0
0F80
ENDCHAR
STARTCHAR 0036
ENCODING 54
SWIDTH 617 0
DWIDTH 18 0
BBX 14 21 2 0
BITMAP
07C0
1FF0
3FF8
7830
F000
E000
E000
E3C0
EFF0
FFF8
F87C
F03C
E01C
E01C
E01C
E01C
703C
787C
3FF8
1FF0
0FC0
ENDCHAR
STARTCHAR 0037
ENCODING 55
SWIDTH 514 0
DWIDTH 15 0
BBX 13 21 1 0
BITMAP
FFF8
FFF8
FFF8
0078
0070
00F0
00E0
00E0
01E0
01C0
03C0
0380
0380
0700
0700
0F00
0E00
0E00
1C00
1C00
3C00
ENDCHAR
STARTCHAR 0038
ENCODING 56
SWIDTH 617 0
DWIDTH 18 0
BBX 14 21 2 0
BITMAP
0FC0
3FE0
7FF0
7878
F038
F038
F038
7878
7FF0
3FE0
7FF0
F878
F038
E03C
E01C
E03C
E03C
F078
7FF0
3FE0
0FC0
ENDCHAR
STARTCHAR 0039
ENCODING 57
SWIDTH 617 0
DWIDTH 18 0
BBX 14 21 2 0
BITMAP
0FC0
3FE0
7FF0
7878
F03C
E01C
E01C
E01C
E01C
F03C
787C
7FFC
3FDC
0F1C
001C
001C
003C
3078
7FF0
3FE0
0F80
ENDCHAR
STARTCHAR 003A
ENCODING 58
SWIDTH 342 0
DWIDTH 10 0
BBX 3 12 3 2
BITMAP
E0
E0
E0
00
00
00
00
00
00
E0
E0
E0
ENDCHAR
STARTCHAR 003B
ENCODING 59
SWIDTH 342 0
DWIDTH 10 0
BBX 3 20 3 -4
BITMAP
E0
E0
E0
00
00
00
00
00
00
00
00
00
E0
E0
E0
E0
20
20
E0
80
ENDCHAR
STARTCHAR 003C
ENCODING 60
SWIDTH 617 0
DWIDTH 18 0
BBX 8 13 5 2
BITMAP
02
07
0E
1C
38
70
E0
E0
70
38
1C
0E
06
ENDCHAR
STARTCHAR 003D
ENCODING 61
SWIDTH 754 0
DWIDTH 22 0
BBX 15 7 3 7
BITMAP
FFFE
FFFE
0000
0000
0000
FFFE
FFFE
ENDCHAR
STARTCHAR 003E
ENCODING 62
SWIDTH 617 0
DWIDTH 18 0
BBX 8 14 6 2
BITMAP
40
E0
F0
78
3C
1E
0F
0F
1E
3C
78
F0
E0
40
ENDCHAR
STARTCHAR 003F
ENCODING 63
SWIDTH 548 0
DWIDTH 16 0
BBX 13 21 1 0
BITMAP
0FC0
1FE0
3FF0
7878
7038
F038
0038
0038
0078
00F0
01E0
03C0
0780
0700
0700
0000
0000
0700
0700
0700
0700
ENDCHAR
STARTCHAR 0040
ENCODING 64
SWIDTH 925 0
DWIDTH 27 0
BBX 22 22 2 -3
BITMAP
00FE00
07FF80
0FEFE0
1E00F0
3C0078
380038
707B1C
71FF1C
61FF1C
E3870C
E3870C
E3830C
E3871C
E3C71C
61FFF8
70FDF8
780040
380000
1E0000
0FEF00
07FF00
00FE00
ENDCHAR
STARTCHAR 0041
ENCODING 65
SWIDTH 651 0
DWIDTH 19 0
BBX 17 21 1 0
BITMAP
03E000
03E000
03F000
077000
077000
077800
0E3800
0E3800
0E3C00
1C1C00
1C1C00
1C1E00
380E00
3FFE00
3FFF00
7FFF00
700700
700780
F00380
E00380
E00380
ENDCHAR
STARTCHAR 0042
ENCODING 66
SWIDTH 617 0
DWIDTH 18 0
BBX 15 21 2 0
BITMAP
FFE0
FFF8
FFF8
E03C
E01C
E01C
E01C
E01C
E03C
FFF8
FFF0
FFFC
E01E
E00E
E00E
E00E
E00E
E01E
FFFC
FFFC
FFF0
ENDCHAR
STARTCHAR 0043
ENCODING 67
SWIDTH 720 0
DWIDTH 21 0
BBX 19 21 1 0
BITMAP
03F800
0FFE00
1FFF80
3E07C0
7803C0
7001E0
F000E0
E00000
E00000
E00000
E00000
E00000
E00000
E00000
F000E0
7001E0
7803C0
3E07C0
1FFF80
0FFE00
03F800
ENDCHAR
STARTCHAR 0044
ENCODING 68
SWIDTH 685 0
DWIDTH 20 0
BBX 17 21 2 0
BITMAP
FFE000
FFF800
FFFC00
E03E00
E00E00
E00F00
E00700
E00700
E00780
E00780
E00380
E00780
E00780
E00700
E00700
E00F00
E00E00
E03E00
FFFC00
FFF800
FFE000
ENDCHAR
STARTCHAR 0045
ENCODING 69
SWIDTH 582 0
DWIDTH 17 0
BBX 13 21 2 0
BITMAP
FFF8
FFF8
FFF8
E000
E000
E000
E000
E000
E000
FFF0
FFF0
FFF0
E000
E000
E000
E000
E000
E000
FFF8
FFF8
FFF8
ENDCHAR
STARTCHAR 0046
ENCODING 70
SWIDTH 514 0
DWIDTH 15 0
BBX 12 21 2 0
BITMAP
FFF0
FFF0
FFF0
E000
E000
E000
E000
E000
E000
FFE0
FFE0
FFE0
E000
E000
E000
E000
E000
E000
E000
E000
E000
ENDCHAR
STARTCHAR 0047
ENCODING 71
SWIDTH 720 0
DWIDTH 21 0
BBX 19 21 1 0
BITMAP
03F800
0FFE00
1FFF00
3E0780
7803C0
7001C0
F00180
E00000
E00000
E00000
E00FE0
E00FE0
E000E0
F000E0
F001E0
7001C0
7803C0
3E0780
1FFF00
0FFE00
03F800
ENDCHAR
STARTCHAR 0048
ENCODING 72
SWIDTH 720 0
DWIDTH 21 0
BBX 17 21 2 0
BITMAP
E00380
E00380
E00380
E00380
E00380
E00380
E00380
E00380
E00380
FFFF80
FFFF80
FFFF80
E00380
E00380
E00380
E00380
E00380
E00380
E00380
E00380
E00380
ENDCHAR
STARTCHAR 0049
ENCODING 73
SWIDTH 274 0
DWIDTH 8 0
BBX 3 21 2 0
BITMAP
E0
E0
E0
E0
E0
E0
E0
E0
E0
E0
E0
E0
E0
E0
E0
E0
E0
E0
E0
E0
E0
ENDCHAR
STARTCHAR 004A
ENCODING 74
SWIDTH 480 0
DWIDTH 14 0
BBX 12 21 0 0
BITMAP
0070
0070
0070
0070
0070
0070
0070
0070
0070
0070
0070
0070
0070
0070
0070
0070
E070
F0F0
7FE0
3FC0
1F80
ENDCHAR
STARTCHAR 004B
ENCODING 75
SWIDTH 617 0
DWIDTH 18 0
BBX 16 21 2 0
BITMAP
E01E
E01C
E038
E078
E0F0
E1E0
E3C0
E780
EF00
FE00
FE00
EF00
EF00
E780
E3C0
E1E0
E0F0
E078
E03C
E01E
E00F
ENDCHAR
STARTCHAR 004C
ENCODING 76
SWIDTH 514 0
DWIDTH 15 0
BBX 13 21 2 0
BITMAP
E000
E000
E000
E000
E000
E000
E000
E000
E000
E000
E000
E000
E000
E000
E000
E000
E000
E000
FFF8
FFF8
FFF8
ENDCHAR
STARTCHAR 004D
ENCODING 77
SWIDTH 857 0
DWIDTH 25 0
BBX 21 21 2 0
BITMAP
E00038
F00078
F00078
F000F8
F800F8
F801F8
FC01F8
FC03B8
EE03B8
EE07B8
E70738
E70F38
E38E38
E38E38
E1DC38
E1DC38
E0F838
E0F838
E0F038
E07038
E06038
ENDCHAR
STARTCHAR 004E
ENCODING 78
SWIDTH 720 0
DWIDTH 21 0
BBX 17 21 2 0
BITMAP
E00780
F00780
F80780
F80780
FC0780
FE0780
EE0780
E70780
E78780
E38780
E1C780
E1E780
E0E780
E0F780
E07F80
E03F80
E03F80
E01F80
E00F80
E00F80
E00780
ENDCHAR
STARTCHAR 004F
ENCODING 79
SWIDTH 754 0
DWIDTH 22 0
BBX 20 21 1 0
BITMAP
03F800
0FFE00
1FFF80
3E07C0
7803C0
7001E0
F000E0
E000E0
E000F0
E000F0
E000F0
E000F0
E000F0
E000E0
F000E0
7001E0
7803C0
3E07C0
1FFF80
0FFE00
03F800
ENDCHAR
STARTCHAR 0050
ENCODING 80
SWIDTH 617 0
DWIDTH 18 0
BBX 15 21 2 0
BITMAP
FFF0
FFF8
FFFC
E01E
E00E
E00E
E00E
E00E
E00E
E00E
E01E
FFFC
FFF8
FFE0
E000
E000
E000
E000
E000
E000
E000
ENDCHAR
STARTCHAR 0051
ENCODING 81
SWIDTH 754 0
DWIDTH 22 0
BBX 20 21 1 0
BITMAP
03F800
0FFE00
1FFF80
3E07C0
7803C0
7001E0
F000E0
E000E0
E000F0
E000F0
E000F0
E000F0
E000F0
E000E0
F00EE0
700FE0
7807C0
3E07C0
1FFFE0
0FFEE0
03F840
ENDCHAR
STARTCHAR 0052
ENCODING 82
SWIDTH 651 0
DWIDTH 19 0
BBX 16 21 2 0
BITMAP
FFF0
FFF8
FFFC
E01E
E00E
E00E
E00E
E00E
E00E
E00E
E01E
FFFC
FFF8
FFF0
E070
E078
E03C
E03C
E01E
E00E
E00F
ENDCHAR
STARTCHAR 0053
ENCODING 83
SWIDTH 651 0
DWIDTH 19 0
BBX 17 21 1 0
BITMAP
07E000
1FFC00
3FFE00
7C1F00
700F00
700700
700000
780000
3F0000
1FF000
0FFC00
00FE00
001F00
000780
200780
F00780
780700
7C0F00
3FFE00
1FFC00
07F000
ENDCHAR
STARTCHAR 0054
ENCODING 84
SWIDTH 617 0
DWIDTH 18 0
BBX 17 21 0 0
BITMAP
FFFF80
FFFF80
FFFF80
01C000
01C000
01C000
01C000
01C000
01C000
01C000
01C000
01C000
01C000
01C000
01C000
01C000
01C000
01C000
01C000
01C000
01C000
ENDCHAR
STARTCHAR 0055
ENCODING 85
SWIDTH 720 0
DWIDTH 21 0
BBX 17 21 2 0
BITMAP
E00380
E00380
E00380
E00380
E00380
E00380
E00380
E00380
E00380
E00380
E00380
E00380
E00380
E00380
E00780
F00700
780F00
7C1F00
3FFE00
1FFC00
07F000
ENDCHAR
STARTCHAR 0056
ENCODING 86
SWIDTH 617 0
DWIDTH 18 0
BBX 18 21 0 0
BITMAP
E001C0
7001C0
700380
700380
380380
380700
380700
1C0700
1C0E00
1C0E00
0E0E00
0E1C00
0E1C00
071C00
073800
073800
07B800
03F800
03F000
03F000
01F000
ENDCHAR
STARTCHAR 0057
ENCODING 87
SWIDTH 960 0
DWIDTH 28 0
BBX 27 21 1 0
BITMAP
E01E01E0
E01E01C0
E01E01C0
F03F03C0
703F0380
703F0380
703F0380
38738700
38738700
38738700
3CF1C700
1CE1CE00
1CE1CE00
1CE1CE00
0FC0FC00
0FC0FC00
0FC0FC00
0FC07C00
07807800
07807800
07807800
ENDCHAR
STARTCHAR 0058
ENCODING 88
SWIDTH 651 0
DWIDTH 19 0
BBX 17 21 1 0
BITMAP
F00780
F00F00
780F00
3C1E00
3C3C00
1E3800
0E7800
077000
07E000
03E000
03C000
03E000
07F000
0F7000
0E7800
1E3C00
3C1C00
381E00
780F00
F00700
E00780
ENDCHAR
STARTCHAR 0059
ENCODING 89
SWIDTH 582 0
DWIDTH 17 0
BBX 17 21 0 0
BITMAP
F00780
700700
780F00
3C0E00
1C1E00
1E1C00
0E3C00
0F7800
077000
07F000
03E000
01E000
01C000
01C000
01C000
01C000
01C000
01C000
01C000
01C000
01C000
ENDCHAR
STARTCHAR 005A
ENCODING 90
SWIDTH 651 0
DWIDTH 19 0
BBX 16 21 1 0
BITMAP
7FFF
7FFF
7FFE
001E
003C
0038
0078
00F0
00F0
01E0
01C0
03C0
0780
0780
0F00
1E00
1E00
3C00
3FFF
7FFF
FFFF
ENDCHAR
STARTCHAR 005B
ENCODING 91
SWIDTH 411 0
DWIDTH 12 0
BBX 6 32 4 -6
BITMAP
FC
FC
FC
E0
E0
E0
E0
E0
E0
E0
E0
E0
E0
E0
E0
E0
E0
E0
E0
E0
E0
E0
E0
E0
E0
E0
E0
E0
E0
FC
FC
FC
ENDCHAR
STARTCHAR 005C
ENCODING 92
SWIDTH 411 0
DWIDTH 12 0
BBX 8 21 2 0
BITMAP
E0
E0
F0
70
70
70
78
38
38
38
1C
1C
1C
1C
0E
0E
0E
0E
07
07
07
ENDCHAR
STARTCHAR 005D
ENCODING 93
SWIDTH 411 0
DWIDTH 12 0
BBX 6 32 2 -6
BITMAP
FC
FC
FC
1C
1C
1C
1C
1C
1C
1C
1C
1C
1C
1C
1C
1C
1C
1C
1C
1C
1C
1C
1C
1C
1C
1C
1C
1C
1C
FC
FC
FC
ENDCHAR
STARTCHAR 005E
ENCODING 94
SWIDTH 685 0
DWIDTH 20 0
BBX 13 8 4 12
BITMAP
0200
0700
0F80
1FC0
39E0
70F0
E078
C030
ENDCHAR
STARTCHAR 005F
ENCODING 95
SWIDTH 651 0
DWIDTH 19 0
BBX 19 2 0 -3
BITMAP
FFFFE0
FFFFE0
ENDCHAR
STARTCHAR 0060
ENCODING 96
SWIDTH 514 0
DWIDTH 15 0
BBX 4 5 5 23
BITMAP
C0
E0
60
70
30
ENDCHAR
STARTCHAR 0061
ENCODING 97
SWIDTH 582 0
DWIDTH 17 0
BBX 14 16 1 0
BITMAP
0FC0
3FF0
3FF8
783C
701C
001C
03FC
1FFC
7FDC
781C
E01C
E03C
F07C
7FFC
7FDC
1F1C
ENDCHAR
STARTCHAR 0062
ENCODING 98
SWIDTH 617 0
DWIDTH 18 0
BBX 15 21 2 0
BITMAP
E000
E000
E000
E000
E000
E7C0
FFF0
FFF8
F878
F03C
E01C
E01C
E01E
E01E
E01C
E01C
F03C
F078
FFF8
FFF0
E7C0
ENDCHAR
STARTCHAR 0063
ENCODING 99
SWIDTH 582 0
DWIDTH 17 0
BBX 15 16 1 0
BITMAP
07E0
1FF8
3FFC
783C
701E
F000
F000
E000
E000
F000
F000
701E
783C
3FF8
1FF8
07E0
ENDCHAR
STARTCHAR 0064
ENCODING 100
SWIDTH 617 0
DWIDTH 18 0
BBX 15 21 1 0
BITMAP
000E
000E
000E
000E
000E
07CE
1FFE
3FFE
783E
701E
F00E
F00E
E00E
E00E
F00E
F00E
701E
783E
3FFE
1FFE
07CE
ENDCHAR
STARTCHAR 0065
ENCODING 101
SWIDTH 582 0
DWIDTH 17 0
BBX 15 16 1 0
BITMAP
07E0
1FF8
3FF8
781C
701E
F00E
F00E
FFFE
FFFE
E000
F000
700C
783E
3FFC
1FF8
07E0
ENDCHAR
STARTCHAR 0066
ENCODING 102
SWIDTH 377 0
DWIDTH 11 0
BBX 10 21 1 0
BITMAP
07C0
1FC0
1FC0
1C00
3C00
FFC0
FFC0
3C00
3C00
3C00
3C00
3C00
3C00
3C00
3C00
3C00
3C00
3C00
3C00
3C00
3C00
ENDCHAR
STARTCHAR 0067
ENCODING 103
SWIDTH 617 0
DWIDTH 18 0
BBX 15 23 1 -7
BITMAP
07CE
1FFE
3FFE
783E
701E
F00E
F00E
E00E
E00E
F00E
F00E
701E
783E
3FFE
1FFE
07CE
000E
001E
101C
783C
3FFC
1FF8
07E0
ENDCHAR
STARTCHAR 0068
ENCODING 104
SWIDTH 617 0
DWIDTH 18 0
BBX 14 21 2 0
BITMAP
E000
E000
E000
E000
E000
E7E0
EFF0
FFF8
F878
F03C
E01C
E01C
E01C
E01C
E01C
E01C
E01C
E01C
E01C
E01C
E01C
ENDCHAR
STARTCHAR 0069
ENCODING 105
SWIDTH 274 0
DWIDTH 8 0
BBX 3 21 2 0
BITMAP
E0
E0
E0
00
00
E0
E0
E0
E0
E0
E0
E0
E0
E0
E0
E0
E0
E0
E0
E0
E0
ENDCHAR
STARTCHAR 006A
ENCODING 106
SWIDTH 274 0
DWIDTH 8 0
BBX 6 28 0 -7
BITMAP
1C
1C
1C
00
00
1C
1C
1C
1C
1C
1C
1C
1C
1C
1C
1C
1C
1C
1C
1C
1C
1C
1C
1C
3C
FC
F8
F0
ENDCHAR
STARTCHAR 006B
ENCODING 107
SWIDTH 514 0
DWIDTH 15 0
BBX 13 21 2 0
BITMAP
E000
E000
E000
E000
E000
E078
E0F0
E1E0
E3C0
E3C0
E780
EF00
FE00
FE00
EF00
E780
E3C0
E1E0
E0F0
E0F8
E078
ENDCHAR
STARTCHAR 006C
ENCODING 108
SWIDTH 274 0
DWIDTH 8 0
BBX 3 21 2 0
BITMAP
E0
E0
E0
E0
E0
E0
E0
E0
E0
E0
E0
E0
E0
E0
E0
E0
E0
E0
E0
E0
E0
ENDCHAR
STARTCHAR 006D
ENCODING 109
SWIDTH 891 0
DWIDTH 26 0
BBX 22 16 2 0
BITMAP
E7C3E0
FFE7F8
FFFFF8
F0FC3C
E0781C
E0781C
E0781C
E0781C
E0781C
E0781C
E0781C
E0781C
E0781C
E0781C
E0781C
E0781C
ENDCHAR
STARTCHAR 006E
ENCODING 110
SWIDTH 617 0
DWIDTH 18 0
BBX 14 16 2 0
BITMAP
E7E0
EFF0
FFF8
F878
F03C
E01C
E01C
E01C
E01C
E01C
E01C
E01C
E01C
E01C
E01C
E01C
ENDCHAR
STARTCHAR 006F
ENCODING 111
SWIDTH 617 0
DWIDTH 18 0
BBX 16 16 1 0
BITMAP
07E0
1FF8
3FFC
783C
701E
F00E
F00F
E00F
E00F
F00E
F00E
701E
783C
3FFC
1FF8
07E0
ENDCHAR
STARTCHAR 0070
ENCODING 112
SWIDTH 617 0
DWIDTH 18 0
BBX 15 23 2 -7
BITMAP
E7C0
FFF0
FFF8
F878
F03C
E01C
E01C
E01E
E01E
E01C
E01C
F03C
F078
FFF8
FFF0
E7C0
E000
E000
E000
E000
E000
E000
E000
ENDCHAR
STARTCHAR 0071
ENCODING 113
SWIDTH 617 0
DWIDTH 18 0
BBX 15 23 1 -7
BITMAP
07CE
1FFE
3FFE
783E
701E
F00E
F00E
E00E
E00E
F00E
F00E
701E
783E
3FFE
1FFE
07CE
000E
000E
000E
000E
000E
000E
000E
ENDCHAR
STARTCHAR 0072
ENCODING 114
SWIDTH 377 0
DWIDTH 11 0
BBX 9 16 2 0
BITMAP
E780
EF80
FF80
F800
F000
E000
E000
E000
E000
E000
E000
E000
E000
E000
E000
E000
ENDCHAR
STARTCHAR 0073
ENCODING 115
SWIDTH 548 0
DWIDTH 16 0
BBX 13 16 1 0
BITMAP
0FC0
3FF0
7FF8
7078
7038
7000
7E00
3FE0
07F0
00F8
0038
F038
F038
7FF8
3FF0
0FC0
ENDCHAR
STARTCHAR 0074
ENCODING 116
SWIDTH 411 0
DWIDTH 12 0
BBX 11 20 0 0
BITMAP
1C00
1C00
1C00
1C00
FFE0
FFE0
1C00
1C00
1C00
1C00
1C00
1C00
1C00
1C00
1C00
1C00
1E00
0FE0
0FE0
03E0
ENDCHAR
STARTCHAR 0075
ENCODING 117
SWIDTH 617 0
DWIDTH 18 0
BBX 14 16 2 0
BITMAP
E01C
E01C
E01C
E01C
E01C
E01C
E01C
E01C
E01C
E01C
E03C
F03C
F87C
7FFC
3FDC
1F9C
ENDCHAR
STARTCHAR 0076
ENCODING 118
SWIDTH 548 0
DWIDTH 16 0
BBX 14 16 1 0
BITMAP
E01C
E01C
F038
7038
7078
3870
3870
38E0
1CE0
1CE0
1DC0
0FC0
0FC0
0F80
0780
0780
ENDCHAR
STARTCHAR 0077
ENCODING 119
SWIDTH 788 0
DWIDTH 23 0
BBX 21 16 1 0
BITMAP
E07038
E07038
E0F838
70F870
70F870
70DC70
39DC70
39DCE0
398CE0
3B8EE0
1F8FC0
1F07C0
1F07C0
0F0780
0E0380
0E0380
ENDCHAR
STARTCHAR 0078
ENCODING 120
SWIDTH 548 0
DWIDTH 16 0
BBX 14 16 1 0
BITMAP
E03C
F038
7878
3CF0
1CE0
1FC0
0FC0
0780
0780
0FC0
1FE0
1CE0
38F0
7878
F03C
E01C
ENDCHAR
STARTCHAR 0079
ENCODING 121
SWIDTH 548 0
DWIDTH 16 0
BBX 15 23 1 -7
BITMAP
E01E
E01C
F01C
7038
7038
3838
3870
3C70
1CF0
1CE0
0EE0
0FC0
0FC0
07C0
0780
0380
0700
0700
0700
0E00
0E00
0E00
1C00
ENDCHAR
STARTCHAR 007A
ENCODING 122
SWIDTH 548 0
DWIDTH 16 0
BBX 13 16 1 0
BITMAP
FFF8
FFF8
FFF0
00E0
01E0
01C0
0380
0700
0F00
0E00
1C00
3C00
3800
7FF8
FFF8
FFF8
ENDCHAR
STARTCHAR 007B
ENCODING 123
SWIDTH 445 0
DWIDTH 13 0
BBX 8 32 4 -6
BITMAP
0F
3F
3F
38
38
38
38
38
38
38
38
38
38
38
70
F0
F0
70
38
38
38
38
38
38
38
38
38
38
38
3F
3F
0F
ENDCHAR
STARTCHAR 007C
ENCODING 124
SWIDTH 274 0
DWIDTH 8 0
BBX 3 21 3 0
BITMAP
E0
E0
E0
E0
E0
E0
E0
E0
E0
E0
E0
E0
E0
E0
E0
E0
E0
E0
E0
E0
E0
ENDCHAR
STARTCHAR 007D
ENCODING 125
SWIDTH 445 0
DWIDTH 13 0
BBX 8 32 1 -6
BITMAP
F0
F8
FC
1C
1C
1C
1C
1C
1C
1C
1C
1C
1C
1C
1E
0F
0F
1E
1C
1C
1C
1C
1C
1C
1C
1C
1C
1C
1C
FC
F8
F0
ENDCHAR
STARTCHAR 007E
ENCODING 126
SWIDTH 685 0
DWIDTH 20 0
BBX 14 6 3 6
BITMAP
3C00
7F1C
FF9C
E7FC
E1FC
0078
ENDCHAR
STARTCHAR 00A0
ENCODING 160
SWIDTH 205 0
DWIDTH 6 0
BBX 0 0 0 0
BITMAP
ENDCHAR
STARTCHAR 00A1
ENCODING 161
SWIDTH 342 0
DWIDTH 10 0
BBX 4 21 3 -5
BITMAP
F0
F0
F0
00
00
F0
F0
F0
F0
F0
F0
F0
F0
F0
F0
F0
F0
F0
F0
F0
F0
ENDCHAR
STARTCHAR 00A2
ENCODING 162
SWIDTH 582 0
DWIDTH 17 0
BBX 15 22 1 -1
BITMAP
0180
0180
0180
0FE0
1FF8
3FFC
783C
701E
F000
E000
E000
E000
F000
F000
701E
783C
3FFC
1FF8
0FE0
0180
0180
0180
ENDCHAR
STARTCHAR 00A3
ENCODING 163
SWIDTH 582 0
DWIDTH 17 0
BBX 14 21 1 0
BITMAP
03E0
07F0
0FF8
1E3C
1C1C
1C0C
1C00
1C00
1C00
FFE0
FFE0
FFE0
1C00
1C00
1C00
1C00
1C00
3C00
FFF8
FFF8
FFF8
ENDCHAR
STARTCHAR 00A4
ENCODING 164
SWIDTH 651 0
DWIDTH 19 0
BBX 17 17 1 2
BITMAP
400100
E3E380
FFFF80
7FFF00
3C1E00
380700
700700
700300
700300
700300
700700
380700
3C1E00
7FFF00
FFFF80
F3E380
600100
ENDCHAR
STARTCHAR 00A5
ENCODING 165
SWIDTH 582 0
DWIDTH 17 0
BBX 17 21 0 0
BITMAP
F00780
700700
780F00
3C0E00
1C1E00
1E1C00
0E3C00
0F7800
077000
07F000
03E000
1FFC00
1FFC00
01C000
01C000
01C000
1FFC00
1FFC00
01C000
01C000
01C000
ENDCHAR
STARTCHAR 00A6
ENCODING 166
SWIDTH 274 0
DWIDTH 8 0
BBX 3 27 3 -6
BITMAP
E0
E0
E0
E0
E0
E0
E0
E0
E0
E0
E0
E0
00
00
00
E0
E0
E0
E0
E0
E0
E0
E0
E0
E0
E0
E0
ENDCHAR
STARTCHAR 00A7
ENCODING 167
SWIDTH 548 0
DWIDTH 16 0
BBX 14 23 1 -4
BITMAP
0F80
3FE0
7FF0
7070
7078
7000
7E00
3FC0
3FF0
78F8
7038
E03C
F038
7F78
3FF0
07F0
00F8
0038
7038
7878
7FF8
3FF0
0FC0
ENDCHAR
STARTCHAR 00A8
ENCODING 168
SWIDTH 548 0
DWIDTH 16 0
BBX 9 3 3 24
BITMAP
E380
E380
E380
ENDCHAR
STARTCHAR 00A9
ENCODING 169
SWIDTH 857 0
DWIDTH 25 0
BBX 23 23 1 -1
BITMAP
007C00
03FF80
0FFFC0
1F83F0
3E00F8
380038
787E3C
70FF1C
E1C78E
E3830E
E3800E
E3800E
E3800E
E3800E
E3838E
F1E71E
70FF1C
787C3C
3C0078
1F01F0
0FFFE0
03FF80
00FE00
ENDCHAR
STARTCHAR 00AA
ENCODING 170
SWIDTH 308 0
DWIDTH 9 0
BBX 7 8 1 8
BITMAP
3C
7E
06
3E
F6
C6
CE
7A
ENDCHAR
STARTCHAR 00AB
ENCODING 171
SWIDTH 582 0
DWIDTH 17 0
BBX 13 13 2 1
BITMAP
0410
0E38
1C70
18E0
39C0
7180
E380
71C0
38C0
1CE0
0C70
0E38
0410
ENDCHAR
STARTCHAR 00AC
ENCODING 172
SWIDTH 617 0
DWIDTH 18 0
BBX 14 6 2 5
BITMAP
FFFC
FFFC
001C
001C
001C
001C
ENDCHAR
STARTCHAR 00AD
ENCODING 173
SWIDTH 411 0
DWIDTH 12 0
BBX 9 2 2 8
BITMAP
FF80
FF80
ENDCHAR
STARTCHAR 00AE
ENCODING 174
SWIDTH 651 0
DWIDTH 19 0
BBX 15 15 2 8
BITMAP
07C0
1FF0
3C78
701C
678C
C44E
C446
C7C6
C48E
E4CC
644C
701C
3C78
1FF0
07C0
ENDCHAR
STARTCHAR 00AF
ENCODING 175
SWIDTH 514 0
DWIDTH 15 0
BBX 8 2 3 25
BITMAP
FF
FF
ENDCHAR
STARTCHAR 00B0
ENCODING 176
SWIDTH 445 0
DWIDTH 13 0
BBX 10 11 1 10
BITMAP
1E00
7F80
7FC0
E1C0
E0C0
E0C0
E1C0
F1C0
7F80
3F00
0C00
ENDCHAR
STARTCHAR 00B1
ENCODING 177
SWIDTH 617 0
DWIDTH 18 0
BBX 14 14 2 2
BITMAP
0300
0300
0300
0300
FFFC
FFFC
0300
0300
0300
0300
0000
0000
FFFC
FFFC
ENDCHAR
STARTCHAR 00B2
ENCODING 178
SWIDTH 411 0
DWIDTH 12 0
BBX 9 13 1 8
BITMAP
1E00
7F00
6180
6180
0180
0180
0380
0700
0E00
3800
7000
FF80
FF80
ENDCHAR
STARTCHAR 00B3
ENCODING 179
SWIDTH 411 0
DWIDTH 12 0
BBX 9 13 1 8
BITMAP
7F80
7F80
0300
0E00
1C00
3E00
1F00
0380
0180
0180
E380
7F00
3E00
ENDCHAR
STARTCHAR 00B4
ENCODING 180
SWIDTH 514 0
DWIDTH 15 0
BBX 4 5 6 23
BITMAP
30
70
60
60
E0
ENDCHAR
STARTCHAR 00B5
ENCODING 181
SWIDTH 617 0
DWIDTH 18 0
BBX 14 23 2 -7
BITMAP
E01C
E01C
E01C
E01C
E01C
E01C
E01C
E01C
E01C
E01C
F01C
F03C
F87C
FFFC
FFFC
EF9C
E000
E000
E000
E000
E000
E000
E000
ENDCHAR
STARTCHAR 00B6
ENCODING 182
SWIDTH 685 0
DWIDTH 20 0
BBX 16 25 2 -4
BITMAP
1FE7
3FE7
7FE7
FFE7
FFE7
FFE7
FFE7
FFE7
FFE7
FFE7
7FE7
7FE7
1FE7
00E7
00E7
00E7
00E7
00E7
00E7
00E7
00E7
00E7
00E7
00E7
00E7
ENDCHAR
STARTCHAR 00B7
ENCODING 183
SWIDTH 240 0
DWIDTH 7 0
BBX 4 4 2 7
BITMAP
E0
F0
F0
E0
ENDCHAR
STARTCHAR 00B8
ENCODING 184
SWIDTH 411 0
DWIDTH 12 0
BBX 5 7 3 -7
BITMAP
30
30
78
18
18
78
F0
ENDCHAR
STARTCHAR 00B9
ENCODING 185
SWIDTH 342 0
DWIDTH 10 0
BBX 4 13 2 8
BITMAP
70
F0
F0
30
30
30
30
30
30
30
30
30
30
ENDCHAR
STARTCHAR 00BA
ENCODING 186
SWIDTH 342 0
DWIDTH 10 0
BBX 8 8 1 8
BITMAP
3C
7E
C3
C3
C3
C3
7E
3C
ENDCHAR
STARTCHAR 00BB
ENCODING 187
SWIDTH 582 0
DWIDTH 17 0
BBX 12 13 2 1
BITMAP
4100
E300
7380
31C0
38E0
1C70
0E70
1C60
38E0
71C0
6380
E700
4000
ENDCHAR
STARTCHAR 00BC
ENCODING 188
SWIDTH 1028 0
DWIDTH 30 0
BBX 24 21 2 0
BITMAP
700040
F00070
F000E0
3001C0
300380
300380
300700
300E00
301C18
301C38
303830
307070
30E060
00E060
01C0C6
0380C6
070186
0701FF
0E01FF
1C0006
080006
ENDCHAR
STARTCHAR 00BD
ENCODING 189
SWIDTH 994 0
DWIDTH 29 0
BBX 25 21 2 0
BITMAP
70004000
F0007000
F000E000
3001C000
30038000
30038000
30070000
300E0000
301C1E00
301C7F00
30386380
3070E180
30E00180
00E00180
01C00380
03800700
07001E00
07003800
0E007000
1C00FF80
0800FF80
ENDCHAR
STARTCHAR 00BE
ENCODING 190
SWIDTH 1028 0
DWIDTH 30 0
BBX 27 21 1 0
BITMAP
7F800800
7F801C00
03001C00
0E003800
1C007000
3E00E000
1F00E000
0381C000
01838700
01830600
E3870E00
7F0E0C00
3E1C0C00
00181980
00381980
00703980
00E03180
00C03FE0
01C03FE0
03800180
01000180
ENDCHAR
STARTCHAR 00BF
ENCODING 191
SWIDTH 548 0
DWIDTH 16 0
BBX 13 22 1 -6
BITMAP
0380
0380
0380
0380
0000
0000
0380
0780
0780
0F00
1F00
3E00
7800
7000
7000
F000
F038
7038
7878
3FF0
3FE0
0780
ENDCHAR
STARTCHAR 00C0
ENCODING 192
SWIDTH 651 0
DWIDTH 19 0
BBX 17 28 1 0
BITMAP
070000
030000
038000
018000
018000
000000
000000
03E000
03E000
03F000
077000
077000
077800
0E3800
0E3800
0E3C00
1C1C00
1C1C00
1C1E00
380E00
3FFE00
3FFF00
7FFF00
700700
700780
F00380
E00380
E00380
ENDCHAR
STARTCHAR 00C1
ENCODING 193
SWIDTH 651 0
DWIDTH 19 0
BBX 17 28 1 0
BITMAP
007000
006000
006000
00E000
00C000
000000
000000
03E000
03E000
03F000
077000
077000
077800
0E3800
0E3800
0E3C00
1C1C00
1C1C00
1C1E00
380E00
3FFE00
3FFF00
7FFF00
700700
700780
F00380
E00380
E00380
ENDCHAR
STARTCHAR 00C2
ENCODING 194
SWIDTH 651 0
DWIDTH 19 0
BBX 17 28 1 0
BITMAP
01C000
03E000
077000
0E3800
000000
000000
000000
03E000
03E000
03F000
077000
077000
077800
0E3800
0E3800
0E3C00
1C1C00
1C1C00
1C1E00
380E00
3FFE00
3FFF00
7FFF00
700700
700780
F00380
E00380
E00380
ENDCHAR
STARTCHAR 00C3
ENCODING 195
SWIDTH 651 0
DWIDTH 19 0
BBX 17 28 1 0
BITMAP
0F1800
0FDC00
0CF800
0C7800
000000
000000
000000
03E000
03E000
03F000
077000
077000
077800
0E3800
0E3800
0E3C00
1C1C00
1C1C00
1C1E00
380E00
3FFE00
3FFF00
7FFF00
700700
700780
F00380
E00380
E00380
ENDCHAR
STARTCHAR 00C4
ENCODING 196
SWIDTH 651 0
DWIDTH 19 0
BBX 17 27 1 0
BITMAP
0E3800
0E3800
0E3800
000000
000000
000000
03E000
03E000
03F000
077000
077000
077800
0E3800
0E3800
0E3C00
1C1C00
1C1C00
1C1E00
380E00
3FFE00
3FFF00
7FFF00
700700
700780
F00380
E00380
E00380
ENDCHAR
STARTCHAR 00C5
ENCODING 197
SWIDTH 651 0
DWIDTH 19 0
BBX 17 30 1 0
BITMAP
01C000
03E000
063000
063000
063000
03F000
01C000
000000
000000
03E000
03E000
03F000
077000
077000
077800
0E3800
0E3800
0E3C00
1C1C00
1C1C00
1C1E00
380E00
3FFE00
3FFF00
7FFF00
700700
700780
F00380
E00380
E00380
ENDCHAR
STARTCHAR 00C6
ENCODING 198
SWIDTH 925 0
DWIDTH 27 0
BBX 25 21 1 0
BITMAP
03FFFF80
03FFFF80
03FFFF80
071C0000
071C0000
071C0000
0E1C0000
0E1C0000
0E1C0000
1C1FFE00
1C1FFE00
1C1FFE00
381C0000
3FFC0000
3FFC0000
7FFC0000
701C0000
701C0000
F01FFF80
E01FFF80
E01FFF80
ENDCHAR
STARTCHAR 00C7
ENCODING 199
SWIDTH 720 0
DWIDTH 21 0
BBX 19 28 1 -7
BITMAP
03F800
0FFE00
1FFF80
3E07C0
7803C0
7001E0
F000E0
E00000
E00000
E00000
E00000
E00000
E00000
E00000
F000E0
7001E0
7803C0
3E07C0
1FFF80
0FFE00
03F800
006000
006000
007000
003000
003000
00F000
00E000
ENDCHAR
STARTCHAR 00C8
ENCODING 200
SWIDTH 582 0
DWIDTH 17 0
BBX 13 28 2 0
BITMAP
0E00
0600
0600
0700
0300
0000
0000
FFF8
FFF8
FFF8
E000
E000
E000
E000
E000
E000
FFF0
FFF0
FFF0
E000
E000
E000
E000
E000
E000
FFF8
FFF8
FFF8
ENDCHAR
STARTCHAR 00C9
ENCODING 201
SWIDTH 582 0
DWIDTH 17 0
BBX 13 28 2 0
BITMAP
00C0
01C0
0180
0380
0300
0000
0000
FFF8
FFF8
FFF8
E000
E000
E000
E000
E000
E000
FFF0
FFF0
FFF0
E000
E000
E000
E000
E000
E000
FFF8
FFF8
FFF8
ENDCHAR
STARTCHAR 00CA
ENCODING 202
SWIDTH 582 0
DWIDTH 17 0
BBX 13 28 2 0
BITMAP
0700
0F80
1DC0
38E0
0000
0000
0000
FFF8
FFF8
FFF8
E000
E000
E000
E000
E000
E000
FFF0
FFF0
FFF0
E000
E000
E000
E000
E000
E000
FFF8
FFF8
FFF8
ENDCHAR
STARTCHAR 00CB
ENCODING 203
SWIDTH 582 0
DWIDTH 17 0
BBX 13 27 2 0
BITMAP
38E0
38E0
38E0
0000
0000
0000
FFF8
FFF8
FFF8
E000
E000
E000
E000
E000
E000
FFF0
FFF0
FFF0
E000
E000
E000
E000
E000
E000
FFF8
FFF8
FFF8
ENDCHAR
STARTCHAR 00CC
ENCODING 204
SWIDTH 274 0
DWIDTH 8 0
BBX 4 28 1 0
BITMAP
C0
E0
60
60
70
00
00
70
70
70
70
70
70
70
70
70
70
70
70
70
70
70
70
70
70
70
70
70
ENDCHAR
STARTCHAR 00CD
ENCODING 205
SWIDTH 274 0
DWIDTH 8 0
BBX 5 28 2 0
BITMAP
18
38
30
70
60
00
00
E0
E0
E0
E0
E0
E0
E0
E0
E0
E0
E0
E0
E0
E0
E0
E0
E0
E0
E0
E0
E0
ENDCHAR
STARTCHAR 00CE
ENCODING 206
SWIDTH 274 0
DWIDTH 8 0
BBX 8 28 0 0
BITMAP
3C
7C
EE
C7
00
00
00
38
38
38
38
38
38
38
38
38
38
38
38
38
38
38
38
38
38
38
38
38
ENDCHAR
STARTCHAR 00CF
ENCODING 207
SWIDTH 274 0
DWIDTH 8 0
BBX 9 27 -1 0
BITMAP
E380
E380
E380
0000
0000
0000
1C00
1C00
1C00
1C00
1C00
1C00
1C00
1C00
1C00
1C00
1C00
1C00
1C00
1C00
1C00
1C00
1C00
1C00
1C00
1C00
1C00
ENDCHAR
STARTCHAR 00D0
ENCODING 208
SWIDTH 685 0
DWIDTH 20 0
BBX 19 21 0 0
BITMAP
3FF800
3FFE00
3FFF00
380F80
380380
3803C0
3801C0
3801C0
3801E0
FFC1E0
FFC0E0
3801E0
3801E0
3801C0
3801C0
3803C0
380380
380F80
3FFF00
3FFE00
3FF800
ENDCHAR
STARTCHAR 00D1
ENCODING 209
SWIDTH 720 0
DWIDTH 21 0
BBX 17 28 2 0
BITMAP
001800
0F9C00
0FF800
0C7800
000000
000000
000000
E00780
F00780
F80780
F80780
FC0780
FE0780
EE0780
E70780
E78780
E38780
E1C780
E1E780
E0E780
E0F780
E07F80
E03F80
E03F80
E01F80
E00F80
E00F80
E00780
ENDCHAR
STARTCHAR 00D2
ENCODING 210
SWIDTH 754 0
DWIDTH 22 0
BBX 20 28 1 0
BITMAP
038000
018000
01C000
00C000
00E000
000000
000000
03F800
0FFE00
1FFF80
3E07C0
7803C0
7001E0
F000E0
E000E0
E000F0
E000F0
E000F0
E000F0
E000F0
E000E0
F000E0
7001E0
7803C0
3E07C0
1FFF80
0FFE00
03F800
ENDCHAR
STARTCHAR 00D3
ENCODING 211
SWIDTH 754 0
DWIDTH 22 0
BBX 20 28 1 0
BITMAP
001800
003800
003000
007000
006000
000000
000000
03F800
0FFE00
1FFF80
3E07C0
7803C0
7001E0
F000E0
E000E0
E000F0
E000F0
E000F0
E000F0
E000F0
E000E0
F000E0
7001E0
7803C0
3E07C0
1FFF80
0FFE00
03F800
ENDCHAR
STARTCHAR 00D4
ENCODING 212
SWIDTH 754 0
DWIDTH 22 0
BBX 20 27 1 0
BITMAP
00F000
01F800
039C00
071C00
000000
000000
03F800
0FFE00
1FFF80
3E07C0
7803C0
7001E0
F000E0
E000E0
E000F0
E000F0
E000F0
E000F0
E000F0
E000E0
F000E0
7001E0
7803C0
3E07C0
1FFF80
0FFE00
03F800
ENDCHAR
STARTCHAR 00D5
ENCODING 213
SWIDTH 754 0
DWIDTH 22 0
BBX 20 27 1 0
BITMAP
03C600
07EE00
067E00
061C00
000000
000000
03F800
0FFE00
1FFF80
3E07C0
7803C0
7001E0
F000E0
E000E0
E000F0
E000F0
E000F0
E000F0
E000F0
E000E0
F000E0
7001E0
7803C0
3E07C0
1FFF80
0FFE00
03F800
ENDCHAR
STARTCHAR 00D6
ENCODING 214
SWIDTH 754 0
DWIDTH 22 0
BBX 20 26 1 0
BITMAP
071C00
071C00
071C00
000000
000000
03F800
0FFE00
1FFF80
3E07C0
7803C0
7001E0
F000E0
E000E0
E000F0
E000F0
E000F0
E000F0
E000F0
E000E0
F000E0
7001E0
7803C0
3E07C0
1FFF80
0FFE00
03F800
ENDCHAR
STARTCHAR 00D7
ENCODING 215
SWIDTH 514 0
DWIDTH 15 0
BBX 11 11 2 5
BITMAP
4040
E0E0
F1C0
7B80
3F00
1E00
1F00
3B80
71C0
E0E0
4040
ENDCHAR
STARTCHAR 00D8
ENCODING 216
SWIDTH 754 0
DWIDTH 22 0
BBX 20 21 1 0
BITMAP
03F840
0FFFF0
1FFFE0
3E07C0
7803C0
7007E0
F00FE0
E01EE0
E03CF0
E078F0
E0F0F0
E1E0F0
E3C0F0
E780E0
FF00E0
7E01E0
7C03C0
7E07C0
FFFF80
FFFE00
23F800
ENDCHAR
STARTCHAR 00D9
ENCODING 217
SWIDTH 720 0
DWIDTH 21 0
BBX 17 28 2 0
BITMAP
030000
038000
018000
018000
01C000
000000
000000
E00380
E00380
E00380
E00380
E00380
E00380
E00380
E00380
E00380
E00380
E00380
E00380
E00380
E00380
E00780
F00700
780F00
7C1F00
3FFE00
1FFC00
07F000
ENDCHAR
STARTCHAR 00DA
ENCODING 218
SWIDTH 720 0
DWIDTH 21 0
BBX 17 28 2 0
BITMAP
006000
00E000
00C000
00C000
01C000
000000
000000
E00380
E00380
E00380
E00380
E00380
E00380
E00380
E00380
E00380
E00380
E00380
E00380
E00380
E00380
E00780
F00700
780F00
7C1F00
3FFE00
1FFC00
07F000
ENDCHAR
STARTCHAR 00DB
ENCODING 219
SWIDTH 720 0
DWIDTH 21 0
BBX 17 28 2 0
BITMAP
01C000
03E000
077000
0E3800
000000
000000
000000
E00380
E00380
E00380
E00380
E00380
E00380
E00380
E00380
E00380
E00380
E00380
E00380
E00380
E00380
E00780
F00700
780F00
7C1F00
3FFE00
1FFC00
07F000
ENDCHAR
STARTCHAR 00DC
ENCODING 220
SWIDTH 720 0
DWIDTH 21 0
BBX 17 27 2 0
BITMAP
0E3800
0E3800
0E3800
000000
000000
000000
E00380
E00380
E00380
E00380
E00380
E00380
E00380
E00380
E00380
E00380
E00380
E00380
E00380
E00380
E00780
F00700
780F00
7C1F00
3FFE00
1FFC00
07F000
ENDCHAR
STARTCHAR 00DD
ENCODING 221
SWIDTH 582 0
DWIDTH 17 0
BBX 17 28 0 0
BITMAP
006000
006000
00E000
00C000
01C000
000000
000000
F00780
700700
780F00
3C0E00
1C1E00
1E1C00
0E3C00
0F7800
077000
07F000
03E000
01E000
01C000
01C000
01C000
01C000
01C000
01C000
01C000
01C000
01C000
ENDCHAR
STARTCHAR 00DE
ENCODING 222
SWIDTH 617 0
DWIDTH 18 0
BBX 15 21 2 0
BITMAP
E000
E000
E000
E000
FFE0
FFF8
FFFC
E03C
E01E
E00E
E00E
E00E
E01E
E03C
FFFC
FFF8
FFE0
E000
E000
E000
E000
ENDCHAR
STARTCHAR 00DF
ENCODING 223
SWIDTH 617 0
DWIDTH 18 0
BBX 14 21 2 0
BITMAP
1F80
3FE0
7FF0
F0F0
E078
E038
E078
E070
E3F0
E3E0
E3F0
E078
E01C
E01C
E01C
E01C
E01C
E03C
E7F8
E7F0
E7E0
ENDCHAR
STARTCHAR 00E0
ENCODING 224
SWIDTH 582 0
DWIDTH 17 0
BBX 14 23 1 0
BITMAP
0E00
0600
0700
0300
0300
0000
0000
0FC0
3FF0
3FF8
783C
701C
001C
03FC
1FFC
7FDC
781C
E01C
E03C
F07C
7FFC
7FDC
1F1C
ENDCHAR
STARTCHAR 00E1
ENCODING 225
SWIDTH 582 0
DWIDTH 17 0
BBX 14 23 1 0
BITMAP
00E0
00C0
01C0
0180
0180
0000
0000
0FC0
3FF0
3FF8
783C
701C
001C
03FC
1FFC
7FDC
781C
E01C
E03C
F07C
7FFC
7FDC
1F1C
ENDCHAR
STARTCHAR 00E2
ENCODING 226
SWIDTH 582 0
DWIDTH 17 0
BBX 14 22 1 0
BITMAP
07C0
06C0
0EE0
1C70
0000
0000
0FC0
3FF0
3FF8
783C
701C
001C
03FC
1FFC
7FDC
781C
E01C
E03C
F07C
7FFC
7FDC
1F1C
ENDCHAR
STARTCHAR 00E3
ENCODING 227
SWIDTH 582 0
DWIDTH 17 0
BBX 14 22 1 0
BITMAP
1F18
1FB8
19F0
18F0
0000
0000
0FC0
3FF0
3FF8
783C
701C
001C
03FC
1FFC
7F9C
781C
E01C
E03C
F07C
7FFC
7FDC
1F1C
ENDCHAR
STARTCHAR 00E4
ENCODING 228
SWIDTH 582 0
DWIDTH 17 0
BBX 14 21 1 0
BITMAP
1C70
1C70
1C70
0000
0000
0FC0
3FF0
3FF8
783C
701C
001C
03FC
1FFC
7FDC
781C
E01C
E03C
F07C
7FFC
7FDC
1F1C
ENDCHAR
STARTCHAR 00E5
ENCODING 229
SWIDTH 582 0
DWIDTH 17 0
BBX 14 24 1 0
BITMAP
0380
07C0
0C60
0C60
0C60
07C0
0380
0000
0FC0
3FF0
3FF8
783C
701C
001C
03FC
1FFC
7FDC
781C
E01C
E03C
F07C
7FFC
7FDC
1F1C
ENDCHAR
STARTCHAR 00E6
ENCODING 230
SWIDTH 925 0
DWIDTH 27 0
BBX 25 16 1 0
BITMAP
07C0F800
1FF3FE00
3FFFFF00
783F0700
703E0380
001C0380
001C0380
1FFFFF80
3FFFFF80
781C0000
E01C0000
E03E0300
E07F0780
7FF7FF00
7FE3FE00
1F80F800
ENDCHAR
STARTCHAR 00E7
ENCODING 231
SWIDTH 582 0
DWIDTH 17 0
BBX 15 23 1 -7
BITMAP
07E0
1FF8
3FFC
783C
701E
F000
F000
E000
E000
E000
F000
701E
783C
3FFC
1FF8
07E0
0180
0380
03C0
00C0
00C0
03C0
0780
ENDCHAR
STARTCHAR 00E8
ENCODING 232
SWIDTH 582 0
DWIDTH 17 0
BBX 15 23 1 0
BITMAP
0600
0700
0300
0380
0380
0000
0000
07E0
1FF8
3FF8
781C
701E
F00E
F00E
FFFE
FFFE
E000
F000
700C
783E
3FFC
1FF8
07E0
ENDCHAR
STARTCHAR 00E9
ENCODING 233
SWIDTH 582 0
DWIDTH 17 0
BBX 15 23 1 0
BITMAP
0060
00E0
00C0
00C0
01C0
0000
0000
07E0
1FF8
3FF8
781C
701E
F00E
F00E
FFFE
FFFE
E000
F000
700C
783E
3FFC
1FF8
07E0
ENDCHAR
STARTCHAR 00EA
ENCODING 234
SWIDTH 582 0
DWIDTH 17 0
BBX 15 22 1 0
BITMAP
03C0
07E0
0E70
1C30
0000
0000
07E0
1FF8
3FF8
781C
701E
F00E
F00E
FFFE
FFFE
E000
F000
700C
783E
3FFC
1FF8
07E0
ENDCHAR
STARTCHAR 00EB
ENCODING 235
SWIDTH 582 0
DWIDTH 17 0
BBX 15 21 1 0
BITMAP
1C70
1C70
1C70
0000
0000
07E0
1FF8
3FF8
781C
701E
F00E
F00E
FFFE
FFFE
E000
F000
700C
783E
3FFC
1FF8
07E0
ENDCHAR
STARTCHAR 00EC
ENCODING 236
SWIDTH 274 0
DWIDTH 8 0
BBX 4 23 1 0
BITMAP
C0
E0
60
70
30
00
00
70
70
70
70
70
70
70
70
70
70
70
70
70
70
70
70
ENDCHAR
STARTCHAR 00ED
ENCODING 237
SWIDTH 274 0
DWIDTH 8 0
BBX 5 23 2 0
BITMAP
38
30
30
70
60
00
00
E0
E0
E0
E0
E0
E0
E0
E0
E0
E0
E0
E0
E0
E0
E0
E0
ENDCHAR
STARTCHAR 00EE
ENCODING 238
SWIDTH 274 0
DWIDTH 8 0
BBX 10 23 -1 0
BITMAP
1E00
3F00
3300
7380
8040
0000
0000
1C00
1C00
1C00
1C00
1C00
1C00
1C00
1C00
1C00
1C00
1C00
1C00
1C00
1C00
1C00
1C00
ENDCHAR
STARTCHAR 00EF
ENCODING 239
SWIDTH 274 0
DWIDTH 8 0
BBX 9 21 -1 0
BITMAP
E380
E380
E380
0000
0000
1C00
1C00
1C00
1C00
1C00
1C00
1C00
1C00
1C00
1C00
1C00
1C00
1C00
1C00
1C00
1C00
ENDCHAR
STARTCHAR 00F0
ENCODING 240
SWIDTH 582 0
DWIDTH 17 0
BBX 15 22 1 1
BITMAP
0330
07F0
07E0
01F0
01F8
019C
001C
07CC
1FFE
3FFE
783E
701E
F00E
E00E
E00E
E00E
F00E
701E
783C
3FF8
1FF0
07E0
ENDCHAR
STARTCHAR 00F1
ENCODING 241
SWIDTH 617 0
DWIDTH 18 0
BBX 14 22 2 0
BITMAP
1E30
3F70
33F0
30E0
0000
0000
E7E0
EFF0
FFF8
F878
F03C
E01C
E01C
E01C
E01C
E01C
E01C
E01C
E01C
E01C
E01C
E01C
ENDCHAR
STARTCHAR 00F2
ENCODING 242
SWIDTH 617 0
DWIDTH 18 0
BBX 16 23 1 0
BITMAP
0600
0600
0700
0300
0380
0000
0000
07E0
1FF8
3FFC
783C
701E
F00E
F00F
E00F
E00F
F00E
F00E
701E
783C
3FFC
1FF8
07E0
ENDCHAR
STARTCHAR 00F3
ENCODING 243
SWIDTH 617 0
DWIDTH 18 0
BBX 16 23 1 0
BITMAP
0060
00E0
00C0
01C0
0180
0000
0000
07E0
1FF8
3FFC
783C
701E
F00E
F00F
E00F
E00F
F00E
F00E
701E
783C
3FFC
1FF8
07E0
ENDCHAR
STARTCHAR 00F4
ENCODING 244
SWIDTH 617 0
DWIDTH 18 0
BBX 16 22 1 0
BITMAP
03C0
07E0
0E70
1C38
0000
0000
07E0
1FF8
3FFC
783C
701E
F00E
F00F
E00F
E00F
F00E
F00E
701E
783C
3FFC
1FF8
07E0
ENDCHAR
STARTCHAR 00F5
ENCODING 245
SWIDTH 617 0
DWIDTH 18 0
BBX 16 22 1 0
BITMAP
0F18
1FB8
19F8
18F0
0000
0000
07E0
1FF8
3FFC
783C
701E
F00E
F00F
E00F
E00F
F00E
F00E
701E
783C
3FFC
1FF8
07E0
ENDCHAR
STARTCHAR 00F6
ENCODING 246
SWIDTH 617 0
DWIDTH 18 0
BBX 16 21 1 0
BITMAP
1C70
1C70
1C70
0000
0000
07E0
1FF8
3FFC
783C
701E
F00E
F00F
E00F
E00F
F00E
F00E
701E
783C
3FFC
1FF8
07E0
ENDCHAR
STARTCHAR 00F7
ENCODING 247
SWIDTH 548 0
DWIDTH 16 0
BBX 12 11 2 5
BITMAP
0E00
0E00
0E00
0000
FFF0
FFF0
0000
0000
0E00
0E00
0E00
ENDCHAR
STARTCHAR 00F8
ENCODING 248
SWIDTH 617 0
DWIDTH 18 0
BBX 16 16 1 0
BITMAP
07E6
1FFF
3FFF
783E
703E
F07E
F0EF
E1CF
E38F
F70E
FE0E
7C1E
783C
FFFC
FFF8
47E0
ENDCHAR
STARTCHAR 00F9
ENCODING 249
SWIDTH 617 0
DWIDTH 18 0
BBX 14 23 2 0
BITMAP
0C00
0E00
0600
0700
0300
0000
0000
E01C
E01C
E01C
E01C
E01C
E01C
E01C
E01C
E01C
E01C
E03C
F03C
F87C
7FFC
3FDC
1F9C
ENDCHAR
STARTCHAR 00FA
ENCODING 250
SWIDTH 617 0
DWIDTH 18 0
BBX 14 23 2 0
BITMAP
01C0
0180
0380
0300
0300
0000
0000
E01C
E01C
E01C
E01C
E01C
E01C
E01C
E01C
E01C
E01C
E03C
F03C
F87C
7FFC
3FDC
1F9C
ENDCHAR
STARTCHAR 00FB
ENCODING 251
SWIDTH 617 0
DWIDTH 18 0
BBX 14 23 2 0
BITMAP
0780
0F80
1DC0
38E0
0000
0000
0000
E01C
E01C
E01C
E01C
E01C
E01C
E01C
E01C
E01C
E01C
E03C
F03C
F87C
7FFC
3FDC
1F9C
ENDCHAR
STARTCHAR 00FC
ENCODING 252
SWIDTH 617 0
DWIDTH 18 0
BBX 14 21 2 0
BITMAP
38E0
38E0
38E0
0000
0000
E01C
E01C
E01C
E01C
E01C
E01C
E01C
E01C
E01C
E01C
E03C
F03C
F87C
7FFC
3FDC
1F9C
ENDCHAR
STARTCHAR 00FD
ENCODING 253
SWIDTH 548 0
DWIDTH 16 0
BBX 15 30 1 -7
BITMAP
00C0
01C0
0180
0380
0300
0000
0000
E01E
E01C
F01C
7038
7038
3838
3870
3C70
1CF0
1CE0
0EE0
0FC0
0FC0
07C0
0780
0380
0700
0700
0700
0E00
0E00
0E00
1C00
ENDCHAR
STARTCHAR 00FE
ENCODING 254
SWIDTH 617 0
DWIDTH 18 0
BBX 15 28 2 -7
BITMAP
E000
E000
E000
E000
E000
E7C0
FFF0
FFF8
F878
F03C
E01C
E01C
E01E
E01E
E01C
E01C
F03C
F078
FFF8
FFF0
E7C0
E000
E000
E000
E000
E000
E000
E000
ENDCHAR
STARTCHAR 00FF
ENCODING 255
SWIDTH 548 0
DWIDTH 16 0
BBX 15 28 1 -7
BITMAP
1C70
1C70
1C70
0000
0000
E01E
E01C
F01C
7038
7038
3838
3870
3C70
1CF0
1CE0
0EE0
0FC0
0FC0
07C0
0780
0380
0700
0700
0700
0E00
0E00
0E00
1C00
ENDCHAR
ENDFONT
